<svg width="64" height="64" viewBox="0 0 64 64" fill="none" xmlns="http://www.w3.org/2000/svg">
<g clip-path="url(#clip0_8574_27222)">
<path d="M17.3334 45.3333H46.6667" stroke="#FA4549" stroke-width="4" stroke-linecap="round" stroke-linejoin="round"/>
<path d="M16 53.3333V48C16 43.7565 17.6857 39.6869 20.6863 36.6863C23.6869 33.6857 27.7565 32 32 32C36.2435 32 40.3131 33.6857 43.3137 36.6863C46.3143 39.6869 48 43.7565 48 48V53.3333C48 54.0406 47.7191 54.7189 47.219 55.219C46.7189 55.7191 46.0406 56 45.3333 56H18.6667C17.9594 56 17.2811 55.7191 16.781 55.219C16.281 54.7189 16 54.0406 16 53.3333Z" stroke="#FA4549" stroke-width="4" stroke-linecap="round" stroke-linejoin="round"/>
<path d="M16 10.6667V16C16 20.2435 17.6857 24.3131 20.6863 27.3137C23.6869 30.3143 27.7565 32 32 32C36.2435 32 40.3131 30.3143 43.3137 27.3137C46.3143 24.3131 48 20.2435 48 16V10.6667C48 9.95942 47.7191 9.28115 47.219 8.78105C46.7189 8.28095 46.0406 8 45.3333 8H18.6667C17.9594 8 17.2811 8.28095 16.781 8.78105C16.281 9.28115 16 9.95942 16 10.6667Z" stroke="#FA4549" stroke-width="4" stroke-linecap="round" stroke-linejoin="round"/>
</g>
<defs>
<clipPath id="clip0_8574_27222">
<rect width="64" height="64" fill="white"/>
</clipPath>
</defs>
</svg>
